<?xml version="1.0" standalone="no"?>
<!DOCTYPE svg PUBLIC "-//W3C//DTD SVG 20010904//EN"
 "http://www.w3.org/TR/2001/REC-SVG-20010904/DTD/svg10.dtd">
<svg version="1.0" xmlns="http://www.w3.org/2000/svg"
 width="364.000000pt" height="364.000000pt" viewBox="0 0 364.000000 364.000000"
 preserveAspectRatio="xMidYMid meet">
<metadata>
Created by potrace 1.14, written by Peter Selinger 2001-2017
</metadata>
<g transform="translate(0.000000,364.000000) scale(0.100000,-0.100000)"
fill="#000000" stroke="none">
<path d="M341 2251 c0 -1518 -2 -1462 59 -1597 99 -219 283 -365 530 -421 27
-6 240 -13 522 -17 252 -4 280 -6 322 -25 24 -12 54 -21 65 -21 12 0 21 -5 21
-12 0 -6 3 -9 6 -6 3 3 28 -2 55 -11 52 -19 96 -55 79 -66 -6 -4 -8 -10 -5
-15 3 -5 1 -11 -5 -15 -6 -4 -8 -11 -5 -16 4 -5 1 -9 -4 -9 -6 0 -11 -4 -11
-8 0 -5 302 -9 670 -9 l670 -1 1 131 c1 73 1 211 0 307 0 96 -2 675 -4 1285
-2 920 -4 1114 -16 1134 -12 22 -51 64 -196 216 -22 22 -125 131 -230 240
-252 264 -282 292 -319 304 -19 6 -455 11 -1118 13 l-1088 4 1 -1385z"/>
</g>
</svg>
